<?xml version="1.0" standalone="no"?>
<!DOCTYPE svg PUBLIC "-//W3C//DTD SVG 20010904//EN"
 "http://www.w3.org/TR/2001/REC-SVG-20010904/DTD/svg10.dtd">
<svg version="1.0" xmlns="http://www.w3.org/2000/svg"
 width="400.000000pt" height="200.000000pt" viewBox="0 0 400.000000 200.000000"
 preserveAspectRatio="xMidYMid meet">
<metadata>
Created by potrace 1.16, written by Peter Selinger 2001-2019
</metadata>
<g transform="translate(0.000000,200.000000) scale(0.100000,-0.100000)"
fill="#000000" stroke="none">
<path d="M0 1000 l0 -1000 2000 0 2000 0 0 1000 0 1000 -2000 0 -2000 0 0
-1000z m3200 54 c0 -198 4 -312 11 -325 8 -16 19 -20 47 -17 34 3 37 1 43 -32
4 -19 6 -36 5 -37 -1 -2 -25 -7 -51 -12 -69 -13 -111 -4 -140 31 l-25 30 2
326 3 327 30 6 c17 4 40 7 53 8 l22 1 0 -306z m-2544 242 c97 -45 142 -132
151 -291 12 -210 -81 -387 -231 -444 l-51 -19 28 -11 c44 -17 121 -13 179 9
29 11 56 20 60 20 4 0 17 -18 28 -40 l20 -39 -22 -15 c-53 -35 -105 -49 -174
-50 -60 0 -80 4 -135 32 -35 17 -82 47 -103 65 -38 32 -39 36 -30 68 9 33 12
34 72 40 101 10 167 67 205 180 38 110 29 293 -17 361 -44 67 -143 87 -205 41
-52 -39 -75 -98 -79 -203 -6 -141 10 -182 91 -235 10 -7 13 -21 10 -47 -4 -32
-9 -38 -29 -38 -64 0 -158 79 -185 156 -20 57 -17 236 5 294 50 131 134 188
281 189 64 1 90 -4 131 -23z m1244 12 c0 -7 -3 -30 -6 -50 l-7 -38 -83 0 -84
0 0 -295 0 -295 -60 0 -60 0 0 295 0 295 -90 0 -90 0 0 43 c0 24 3 47 7 50 3
4 111 7 240 7 180 0 233 -3 233 -12z m202 -122 l18 -21 25 29 c24 26 28 27 56
16 26 -11 29 -17 27 -49 l-3 -36 41 3 c35 2 44 -2 59 -24 16 -25 16 -27 -5
-49 -28 -30 -21 -51 19 -60 27 -6 31 -11 31 -40 0 -29 -4 -34 -29 -40 -41 -9
-47 -33 -17 -64 25 -26 25 -27 8 -52 -14 -22 -21 -25 -46 -18 -41 11 -59 -5
-51 -48 5 -29 3 -35 -20 -45 -22 -10 -28 -8 -48 10 -32 30 -54 27 -72 -8 -12
-23 -22 -30 -45 -30 -25 0 -30 4 -30 24 0 23 -23 56 -39 56 -4 0 -16 -7 -27
-15 -24 -18 -34 -18 -57 0 -17 12 -17 17 -6 49 16 46 -1 71 -43 62 -24 -5 -30
-2 -39 21 -9 23 -6 30 21 55 26 23 29 31 20 47 -5 11 -19 23 -30 26 -23 7 -24
13 -10 49 8 21 16 26 44 26 41 0 52 20 31 60 -15 28 -14 30 11 46 24 16 27 16
55 0 37 -22 59 -8 59 35 0 23 5 28 28 31 15 2 31 -2 37 -10 6 -8 18 -24 27
-36z m614 19 c17 -42 35 -44 63 -9 17 22 24 25 48 17 24 -8 28 -15 29 -47 1
-49 12 -59 53 -45 28 10 34 9 46 -7 19 -25 19 -49 0 -64 -26 -22 -18 -49 18
-58 28 -7 32 -13 35 -44 3 -33 1 -37 -28 -43 -42 -9 -48 -31 -17 -63 24 -25
25 -29 11 -54 -16 -31 -21 -32 -58 -19 -32 13 -49 -6 -44 -51 2 -27 -2 -35
-25 -48 -26 -14 -28 -14 -50 14 -20 25 -26 27 -45 17 -12 -6 -25 -23 -28 -36
-5 -20 -12 -25 -40 -25 -28 0 -34 4 -34 21 0 54 -35 73 -78 43 -21 -14 -25
-14 -47 0 -24 16 -24 18 -11 50 18 44 5 66 -40 66 -28 0 -36 5 -45 27 -9 24
-7 29 21 51 37 29 38 47 3 69 -16 9 -30 18 -31 19 -2 2 -1 16 3 33 6 28 10 31
45 31 45 0 58 22 39 64 -11 23 -10 30 8 48 20 20 22 20 51 3 39 -23 60 -14 64
27 2 27 8 34 33 39 17 4 31 7 33 8 2 0 10 -15 18 -34z m1016 -81 l48 -15 -15
-37 c-9 -20 -17 -38 -19 -40 -3 -2 -29 4 -60 14 -69 22 -109 12 -114 -26 -4
-37 17 -59 103 -104 93 -49 119 -85 112 -155 -6 -52 -31 -88 -83 -119 -33 -19
-50 -22 -109 -19 -42 2 -89 12 -118 25 l-47 21 17 38 c10 21 19 40 20 42 1 2
25 -6 52 -18 27 -11 68 -21 91 -21 33 0 42 4 52 25 18 41 -3 70 -79 109 -37
19 -78 44 -91 56 -46 43 -55 113 -22 167 47 78 137 98 262 57z m-2454 -171 l3
-43 -145 0 -146 0 0 45 0 46 143 -3 142 -3 3 -42z"/>
<path d="M2042 1107 c-80 -16 -143 -111 -127 -190 10 -49 49 -102 88 -120 78
-38 169 -14 221 56 30 40 30 144 0 183 -46 63 -107 87 -182 71z"/>
<path d="M2622 1084 c-149 -89 -81 -325 94 -324 115 1 203 131 159 236 -44
107 -156 146 -253 88z"/>
</g>
</svg>
