<?xml version="1.0" encoding="UTF-8"?>
<!DOCTYPE svg PUBLIC "-//W3C//DTD SVG 1.1//EN" "http://www.w3.org/Graphics/SVG/1.1/DTD/svg11.dtd">
<svg xmlns="http://www.w3.org/2000/svg" version="1.1" width="400px" height="200px" style="shape-rendering:geometricPrecision; text-rendering:geometricPrecision; image-rendering:optimizeQuality; fill-rule:evenodd; clip-rule:evenodd" xmlns:xlink="http://www.w3.org/1999/xlink">
<g><path style="opacity:1" fill="#1b325f" d="M -0.5,-0.5 C 132.833,-0.5 266.167,-0.5 399.5,-0.5C 399.5,66.1667 399.5,132.833 399.5,199.5C 266.167,199.5 132.833,199.5 -0.5,199.5C -0.5,132.833 -0.5,66.1667 -0.5,-0.5 Z"/></g>
<g><path style="opacity:1" fill="#fdfdfd" d="M 313.5,63.5 C 315.5,63.5 317.5,63.5 319.5,63.5C 319.333,84.5026 319.5,105.503 320,126.5C 322.507,128.155 325.341,128.989 328.5,129C 329.423,131.041 329.756,133.208 329.5,135.5C 324.204,136.509 318.871,136.676 313.5,136C 311.19,134.363 309.69,132.196 309,129.5C 308.5,107.836 308.333,86.1692 308.5,64.5C 310.415,64.7845 312.081,64.4511 313.5,63.5 Z"/></g>
<g><path style="opacity:1" fill="#f8f9fa" d="M 42.5,67.5 C 62.7574,63.8571 75.2574,71.8571 80,91.5C 82.7888,109.792 77.9554,125.625 65.5,139C 61.5568,141.804 57.2234,143.804 52.5,145C 55.2966,146.995 58.4633,147.828 62,147.5C 67.6328,147.401 72.9661,146.068 78,143.5C 78.772,143.645 79.4387,143.978 80,144.5C 81.0395,146.746 82.2062,148.913 83.5,151C 66.1239,162.545 50.6239,160.378 37,144.5C 36.6577,142.182 37.1577,140.015 38.5,138C 49.6975,138.821 57.8642,134.321 63,124.5C 68.0697,112.053 68.7364,99.3863 65,86.5C 61.0913,78.1294 54.5913,74.9627 45.5,77C 39.9212,80.3229 36.4212,85.1562 35,91.5C 34.3333,98.1667 34.3333,104.833 35,111.5C 35.88,117.323 39.0466,120.99 44.5,122.5C 44.5,125.5 44.5,128.5 44.5,131.5C 33.2967,130.473 26.13,124.473 23,113.5C 17.4022,92.7397 23.9022,77.4063 42.5,67.5 Z"/></g>
<g><path style="opacity:1" fill="#f9f9fa" d="M 189.5,68.5 C 188.841,71.4552 188.508,74.4552 188.5,77.5C 182.833,77.5 177.167,77.5 171.5,77.5C 171.5,97.1667 171.5,116.833 171.5,136.5C 167.5,136.5 163.5,136.5 159.5,136.5C 159.5,116.5 159.5,96.5 159.5,76.5C 153.833,76.5 148.167,76.5 142.5,76.5C 142.5,73.8333 142.5,71.1667 142.5,68.5C 158.167,68.5 173.833,68.5 189.5,68.5 Z"/></g>
<g><path style="opacity:1" fill="#919bb1" d="M 189.5,68.5 C 173.833,68.5 158.167,68.5 142.5,68.5C 142.5,71.1667 142.5,73.8333 142.5,76.5C 148.167,76.5 153.833,76.5 159.5,76.5C 159.5,96.5 159.5,116.5 159.5,136.5C 158.503,117.007 158.17,97.3404 158.5,77.5C 152.833,77.5 147.167,77.5 141.5,77.5C 141.5,74.1667 141.5,70.8333 141.5,67.5C 157.675,67.1703 173.675,67.5036 189.5,68.5 Z"/></g>
<g><path style="opacity:1" fill="#c0c1c2" d="M 200.5,76.5 C 202.857,76.3367 205.19,76.5034 207.5,77C 208.12,79.2123 209.287,81.0456 211,82.5C 213.301,81.1996 215.301,79.533 217,77.5C 218.559,78.0294 220.059,78.696 221.5,79.5C 221.887,81.7308 222.053,84.0641 222,86.5C 224.758,87.1172 227.591,87.2839 230.5,87C 234.633,90.0944 234.466,92.9278 230,95.5C 229.333,96.5 229.333,97.5 230,98.5C 232.007,99.6687 234.173,100.335 236.5,100.5C 236.5,102.833 236.5,105.167 236.5,107.5C 234.5,107.833 232.5,108.167 230.5,108.5C 230.34,110.199 230.506,111.866 231,113.5C 234.317,116.608 234.15,119.608 230.5,122.5C 227.244,119.793 224.578,120.127 222.5,123.5C 224.575,127.681 223.408,130.348 219,131.5C 217.225,130.73 215.725,129.563 214.5,128C 210.289,127.183 208.289,129.016 208.5,133.5C 206.167,133.5 203.833,133.5 201.5,133.5C 202.427,129.555 201.094,126.888 197.5,125.5C 195.358,127.207 193.025,128.041 190.5,128C 189.01,127.255 188.01,126.088 187.5,124.5C 189.106,122.41 189.606,120.076 189,117.5C 186.333,116.833 183.667,116.167 181,115.5C 178.421,111.528 179.421,108.861 184,107.5C 184.667,105.833 184.667,104.167 184,102.5C 179.503,100.834 178.336,97.8342 180.5,93.5C 183.247,93.8134 185.914,93.48 188.5,92.5C 188.06,89.3935 188.06,86.2269 188.5,83C 189.609,82.3623 190.775,81.8623 192,81.5C 198.357,86.2344 201.19,84.5677 200.5,76.5 Z"/></g>
<g><path style="opacity:1" fill="#97bedf" d="M 265.5,75.5 C 266.873,75.3433 268.207,75.51 269.5,76C 270.64,78.4583 272.14,80.625 274,82.5C 276.154,81.6796 277.654,80.1796 278.5,78C 280.635,77.3653 282.635,77.6986 284.5,79C 285.444,81.7191 285.777,84.5525 285.5,87.5C 287.884,87.5567 290.218,87.2234 292.5,86.5C 294.205,87.545 295.705,88.8783 297,90.5C 296.191,92.8667 295.025,95.2 293.5,97.5C 293.608,98.4419 293.941,99.2753 294.5,100C 299.573,100.465 301.573,103.299 300.5,108.5C 292.945,108.683 291.778,111.35 297,116.5C 297.687,118.92 297.187,121.087 295.5,123C 292.591,122.716 289.758,122.883 287,123.5C 287.198,126.235 287.031,128.901 286.5,131.5C 283.303,134.484 280.636,134.151 278.5,130.5C 273.75,128.569 271.417,130.236 271.5,135.5C 269.167,135.5 266.833,135.5 264.5,135.5C 265.546,131.244 264.046,128.578 260,127.5C 256.506,131.143 253.173,131.143 250,127.5C 250.282,125.384 250.782,123.217 251.5,121C 251.415,119.893 251.081,118.893 250.5,118C 247.854,117.503 245.187,117.336 242.5,117.5C 242.643,115.738 242.309,114.071 241.5,112.5C 243.543,110.491 245.543,108.491 247.5,106.5C 246.864,103.864 245.198,102.198 242.5,101.5C 241.369,99.9255 241.202,98.2588 242,96.5C 244.54,94.98 247.373,93.98 250.5,93.5C 251.589,90.8911 251.255,88.3911 249.5,86C 250.101,84.395 251.101,83.0616 252.5,82C 255.381,82.9246 258.381,83.5913 261.5,84C 262.435,81.6194 262.768,79.1194 262.5,76.5C 263.791,76.7373 264.791,76.404 265.5,75.5 Z"/></g>
<g><path style="opacity:1" fill="#f8f9fa" d="M 354.5,85.5 C 361.945,84.8737 369.111,85.8737 376,88.5C 376.383,91.6827 375.383,94.3494 373,96.5C 368.459,93.912 363.626,93.0787 358.5,94C 355.662,98.1535 356.328,101.82 360.5,105C 365.694,106.847 370.528,109.347 375,112.5C 381.627,127.562 376.627,135.896 360,137.5C 354.496,137.499 349.329,136.166 344.5,133.5C 344.167,132.833 343.833,132.167 343.5,131.5C 344.467,129.238 345.134,126.905 345.5,124.5C 349.815,126.825 354.482,128.158 359.5,128.5C 365.507,128.991 367.674,126.324 366,120.5C 361.762,116.744 356.929,113.911 351.5,112C 341.409,101.816 342.409,92.9824 354.5,85.5 Z"/></g>
<g><path style="opacity:1" fill="#1e3460" d="M 201.5,88.5 C 219.189,87.3465 226.356,95.3465 223,112.5C 217.955,120.409 210.788,123.242 201.5,121C 190.268,113.972 188.102,104.806 195,93.5C 197.326,91.9343 199.492,90.2676 201.5,88.5 Z"/></g>
<g><path style="opacity:1" fill="#1c3360" d="M 265.5,88.5 C 285.169,88.865 291.669,98.1983 285,116.5C 274.928,126.144 265.261,125.81 256,115.5C 250.733,103.392 253.9,94.3919 265.5,88.5 Z"/></g>
<g><path style="opacity:1" fill="#eef0f3" d="M 98.5,99.5 C 108.167,99.5 117.833,99.5 127.5,99.5C 127.5,102.5 127.5,105.5 127.5,108.5C 117.833,108.5 108.167,108.5 98.5,108.5C 98.5,105.5 98.5,102.5 98.5,99.5 Z"/></g>
</svg>
