<?xml version="1.0" standalone="no"?>
<!DOCTYPE svg PUBLIC "-//W3C//DTD SVG 20010904//EN"
 "http://www.w3.org/TR/2001/REC-SVG-20010904/DTD/svg10.dtd">
<svg version="1.0" xmlns="http://www.w3.org/2000/svg"
 width="50.000000pt" height="50.000000pt" viewBox="0 0 50.000000 50.000000"
 preserveAspectRatio="xMidYMid meet">

<g transform="translate(0.000000,50.000000) scale(0.100000,-0.100000)"
fill="#000000" stroke="none">
<path d="M0 250 l0 -250 250 0 250 0 0 250 0 250 -250 0 -250 0 0 -250z m311
160 c68 -37 64 -183 -7 -239 l-28 -22 44 3 c35 2 45 -1 48 -14 5 -24 -57 -42
-104 -29 -67 18 -95 71 -39 71 40 0 65 44 65 114 0 64 -11 86 -41 86 -42 0
-65 -85 -34 -126 38 -50 -5 -75 -50 -29 -42 41 -28 155 22 184 23 14 99 14
124 1z"/>
</g>
</svg>
